mtllib shieldfract.mtl
o object1
g object1
v -3.12710025 1.26390500 -0.27265228
v -3.68607459 2.26061095 -0.51568461
v -2.50000000 5.03694123 -0.00000000
v -2.50000000 7.23471934 -0.00000000
v -6.00000000 6.68311904 -1.52173913
v -6.00000000 4.00000000 -1.52173913
v -3.68607459 2.26061095 -2.32003243
v -3.12710025 1.26390500 -2.07700011
v -6.00000000 4.00000000 -3.32608696
v -6.00000000 6.68311904 -3.32608696
v -2.15584073 7.28895887 -1.65471336
v -2.15584073 5.84253963 -1.65471336
v -1.49330968 7.39337382 -0.00000000
v -1.49330968 7.39337382 -1.65471336
vt 0.00000000 0.17917150
vt 0.16692965 0.33887845
vt 0.63191317 0.00000000
vt 1.00000000 0.00000000
vt 0.90761724 1.00000000
vt 0.45824486 1.00000000
vt 0.16542689 0.60193276
vt 0.00000000 0.74734150
vt 0.45411959 0.00000000
vt 0.89944657 0.00000000
vt 1.00000000 1.00000000
vt 0.75993256 1.00000000
vt 0.00000000 0.00000000
vt 1.00000000 0.00000000
vt 1.00000000 1.00000000
vt 0.00000000 1.00000000
vt 1.00000000 1.00000000
vt 0.40907600 1.00000000
vt 0.00000000 0.00000000
vt 0.59092400 0.00000000
vt 0.49749552 0.14701056
vt 1.00000000 1.00000000
vt 0.45751634 1.00000000
vt 0.00000000 0.22337686
vt 0.00000000 0.00000000
vt 0.49749552 0.00000000
vt 1.00000000 1.00000000
vt 0.00000000 0.00000000
vt 0.93267175 0.00000000
vt 0.00000000 1.00000000
vt 1.00000000 0.00000000
vt 0.93267175 1.00000000
vt 0.00000000 1.00000000
vt 0.00000000 0.54090367
vt 0.22227474 0.00000000
vt 1.00000000 0.00000000
vt 0.71322855 0.69785587
vt 0.71322855 1.00000000
vt 0.00000000 0.00000000
vt 0.88129595 0.00000000
vt 1.00000000 1.00000000
vt 0.11870405 1.00000000
vn -0.39872611 0.00000000 0.91707006
vn -0.39872611 0.00000000 0.91707006
vn -0.39872611 0.00000000 0.91707006
vn -0.39872611 0.00000000 0.91707006
vn -0.39872611 0.00000000 0.91707006
vn -0.39872611 0.00000000 0.91707006
vn 0.39872611 -0.00000000 -0.91707006
vn 0.39872611 -0.00000000 -0.91707006
vn 0.39872611 -0.00000000 -0.91707006
vn 0.39872611 -0.00000000 -0.91707006
vn 0.39872611 -0.00000000 -0.91707006
vn 0.39872611 -0.00000000 -0.91707006
vn -1.00000000 -0.00000000 0.00000000
vn -1.00000000 -0.00000000 0.00000000
vn -1.00000000 -0.00000000 0.00000000
vn -1.00000000 -0.00000000 0.00000000
vn -0.68965517 -0.72413793 0.00000000
vn -0.68965517 -0.72413793 0.00000000
vn -0.68965517 -0.72413793 0.00000000
vn -0.68965517 -0.72413793 0.00000000
vn -0.15567859 0.98780776 -0.00000000
vn -0.15567859 0.98780776 -0.00000000
vn -0.15567859 0.98780776 -0.00000000
vn -0.15567859 0.98780776 -0.00000000
vn -0.15567859 0.98780776 -0.00000000
vn -0.15567859 0.98780776 -0.00000000
vn 0.00000000 -0.00000000 -1.00000000
vn 0.00000000 -0.00000000 -1.00000000
vn 0.00000000 -0.00000000 -1.00000000
vn -0.00000000 0.00000000 1.00000000
vn -0.00000000 0.00000000 1.00000000
vn -0.00000000 0.00000000 1.00000000
vn 0.91959790 -0.39286093 0.00000000
vn 0.91959790 -0.39286093 0.00000000
vn 0.91959790 -0.39286093 0.00000000
vn 0.91959790 -0.39286093 0.00000000
vn 0.91959790 -0.39286093 0.00000000
vn 0.91959790 -0.39286093 0.00000000
vn 0.87220031 0.48914887 0.00000000
vn 0.87220031 0.48914887 0.00000000
vn 0.87220031 0.48914887 0.00000000
vn 0.87220031 0.48914887 0.00000000
s 1
usemtl Default
f 3/3/3 4/4/4 5/5/5
f 2/2/2 3/3/3 6/6/6
f 1/1/1 2/2/2 6/6/6
f 3/3/3 5/5/5 6/6/6
s 2
f 10/10/10 11/11/11 12/12/12
f 9/9/9 12/12/12 7/7/7
f 7/7/7 8/8/8 9/9/9
f 9/9/9 10/10/10 12/12/12
s 3
f 9/16/16 6/15/15 5/14/14 10/13/13
s 4
f 6/20/20 9/19/19 8/18/18 1/17/17
s 5
f 13/25/25 14/26/26 11/21/21
f 11/21/21 10/22/22 5/23/23
f 5/23/23 4/24/24 11/21/21
f 4/24/24 13/25/25 11/21/21
s 6
f 14/27/27 12/28/28 11/29/29
s 7
f 3/30/30 13/31/31 4/32/32
s 8
f 12/37/37 14/38/38 13/33/33
f 3/34/34 7/36/36 12/37/37
f 3/34/34 2/35/35 7/36/36
f 12/37/37 13/33/33 3/34/34
s 9
f 1/39/39 8/40/40 7/41/41 2/42/42
o object2
g object2
v -6.00000000 8.00000000 -3.32608696
v -6.00000000 12.00000000 -3.32608696
v -6.00000000 12.00000000 -1.52173913
v -6.00000000 8.00000000 -1.52173913
v -6.00000000 6.68311904 -1.52173913
v -6.00000000 6.68311904 -3.32608696
v -1.49330968 7.39337382 -0.00000000
v -2.50000000 9.60308761 -0.00000000
v -2.50000000 7.23471934 -0.00000000
v -2.15584073 8.84764826 -1.65471336
v -1.49330968 7.39337382 -1.65471336
v -2.15584073 7.28895887 -1.65471336
v -3.59197331 12.00000000 -0.47477101
v -3.59197331 12.00000000 -2.27911883
vt 0.00000000 1.00000000
vt 0.00000000 0.00000000
vt 1.00000000 0.00000000
vt 1.00000000 1.00000000
vt 1.00000000 1.00000000
vt 0.00000000 1.00000000
vt 0.00000000 0.00000000
vt 1.00000000 0.00000000
vt 0.06698894 0.00000000
vt 1.00000000 1.00000000
vt 0.00000000 1.00000000
vt 1.00000000 0.00000000
vt 0.06698894 1.00000000
vt 0.00000000 0.00000000
vt 0.54918825 0.00000000
vt 1.00000000 0.31199237
vt 1.00000000 1.00000000
vt 0.24767923 1.00000000
vt 0.00000000 1.00000000
vt 0.10374509 0.00000000
vt 1.00000000 0.62641179
vt 0.40710507 1.00000000
vt 0.11394647 1.00000000
vt 0.00000000 0.00000000
vt 0.24767923 0.00000000
vt 1.00000000 0.00000000
vt 0.36718769 0.00000000
vt 1.00000000 0.00000000
vt 0.63281231 1.00000000
vt 0.00000000 1.00000000
vt 1.00000000 1.00000000
vt 0.45751634 1.00000000
vt 0.00000000 0.22337686
vt 0.00000000 0.00000000
vt 0.49749552 0.00000000
vt 0.49749552 0.14701056
vt 1.00000000 0.00000000
vt 0.72603207 0.68430813
vt 0.72603207 1.00000000
vt 0.00000000 1.00000000
vt 0.00000000 0.52031840
vt 0.20831341 0.00000000
vn -1.00000000 -0.00000000 0.00000000
vn -1.00000000 -0.00000000 0.00000000
vn -1.00000000 -0.00000000 0.00000000
vn -1.00000000 -0.00000000 0.00000000
vn -1.00000000 -0.00000000 0.00000000
vn -1.00000000 -0.00000000 0.00000000
vn -0.00000000 0.00000000 1.00000000
vn -0.00000000 0.00000000 1.00000000
vn -0.00000000 0.00000000 1.00000000
vn 0.00000000 -0.00000000 -1.00000000
vn 0.00000000 0.00000000 -1.00000000
vn 0.00000000 -0.00000000 -1.00000000
vn -0.39872611 0.00000000 0.91707006
vn -0.39872611 0.00000000 0.91707006
vn -0.39872611 0.00000000 0.91707006
vn -0.39872611 0.00000000 0.91707006
vn -0.39872611 0.00000000 0.91707006
vn -0.39872611 0.00000000 0.91707006
vn 0.39872611 -0.00000000 -0.91707006
vn 0.39872611 -0.00000000 -0.91707006
vn 0.39872611 -0.00000000 -0.91707006
vn 0.39872611 -0.00000000 -0.91707006
vn 0.39872611 -0.00000000 -0.91707006
vn 0.39872611 -0.00000000 -0.91707006
vn -0.00000000 1.00000000 0.00000000
vn -0.00000000 1.00000000 0.00000000
vn -0.00000000 1.00000000 0.00000000
vn -0.00000000 1.00000000 0.00000000
vn 0.15567859 -0.98780776 0.00000000
vn 0.15567859 -0.98780776 0.00000000
vn 0.15567859 -0.98780776 0.00000000
vn 0.15567859 -0.98780776 0.00000000
vn 0.15567859 -0.98780776 0.00000000
vn 0.15567859 -0.98780776 0.00000000
vn 0.91001321 0.41457925 0.00000000
vn 0.91001321 0.41457925 0.00000000
vn 0.91001321 0.41457925 -0.00000000
vn 0.91001321 0.41457925 -0.00000000
vn 0.91001321 0.41457925 0.00000000
vn 0.91001321 0.41457925 0.00000000
s 1
usemtl Default
f 18/46/46 17/45/45 16/44/44 15/43/43
f 18/50/46 15/49/43 20/48/48 19/47/47
s 2
f 21/51/49 22/52/50 23/53/51
s 3
f 24/54/52 25/55/53 26/56/54
s 4
f 18/60/58 19/61/59 23/62/60
f 22/57/55 17/59/57 18/60/58
f 22/57/55 27/58/56 17/59/57
f 18/60/58 23/62/60 22/57/55
s 5
f 26/65/63 20/66/64 15/67/65
f 24/64/62 15/67/65 16/68/66
f 16/68/66 28/63/61 24/64/62
f 24/64/62 26/65/63 15/67/65
s 6
f 16/72/70 17/71/69 27/70/68 28/69/67
s 7
f 26/78/76 25/77/75 21/76/74
f 26/78/76 19/74/72 20/73/71
f 26/78/76 23/75/73 19/74/72
f 26/78/76 21/76/74 23/75/73
s 8
f 21/82/80 25/81/79 24/80/78
f 22/83/81 24/80/78 28/79/77
f 28/79/77 27/84/82 22/83/81
f 22/83/81 21/82/80 24/80/78
o object3
g object3
v 1.80000000 -0.00000000 -1.65471336
v -0.00000000 0.00000000 -1.65471336
v -0.00000000 0.00000000 -0.00000000
v 1.80000000 -0.00000000 -0.00000000
v -1.80000000 -0.00000000 -1.65471336
v -1.80000000 -0.00000000 -0.00000000
v -3.12710025 1.26390500 -2.07700011
v -3.68607459 2.26061095 -2.32003243
v -2.15584073 5.84253963 -1.65471336
v -2.15584073 0.33889594 -1.65471336
v -3.68607459 2.26061095 -0.51568461
v -3.12710025 1.26390500 -0.27265228
v -2.50000000 0.66666667 -0.00000000
v -2.50000000 5.03694123 -0.00000000
v -1.49330968 7.39337382 -1.65471336
v 1.95584073 8.38917371 -1.65471336
v 1.95584073 0.14841975 -1.65471336
v -1.49330968 7.39337382 -0.00000000
v 2.30000000 0.47619048 -0.00000000
v 2.30000000 8.48853551 -0.00000000
v 4.69535028 9.18009409 -1.04145664
v 5.21642821 3.25374115 -1.26801226
v 4.69535028 9.18009409 -2.84580447
v 5.21642821 3.25374115 -3.07236009
vt 0.00000000 1.00000000
vt 0.00000000 0.00000000
vt 1.00000000 0.00000000
vt 1.00000000 1.00000000
vt 0.00000000 1.00000000
vt 0.00000000 0.00000000
vt 1.00000000 0.00000000
vt 1.00000000 1.00000000
vt 0.16807212 0.36528687
vt 0.34917141 0.00000000
vt 1.00000000 1.00000000
vt 0.00000000 1.00000000
vt 0.36472406 1.00000000
vt 0.13665922 0.52871906
vt 0.00000000 0.00000000
vt 1.00000000 0.00000000
vt 0.69643803 0.00000000
vt 0.88129941 0.16113385
vt 1.00000000 1.00000000
vt 0.01769182 1.00000000
vt 0.00000000 0.96209805
vt 0.00000000 0.52432095
vt 0.00000000 0.08654385
vt 0.04039682 0.00000000
vt 0.87098344 0.79027285
vt 0.59338165 1.00000000
vt 0.07853730 1.00000000
vt 0.00000000 0.85416667
vt 0.00000000 0.47916667
vt 0.00000000 0.10416667
vt 0.05609807 0.00000000
vt 1.00000000 0.00000000
vt 1.00000000 0.17866990
vt 0.92054616 1.00000000
vt 0.00000000 1.00000000
vt 0.31911551 0.00000000
vt 0.91242816 0.00000000
vt 1.00000000 0.84018894
vt 0.34382566 1.00000000
vt 0.00000000 0.00000000
vt 0.00000000 0.00000000
vt 0.86872784 0.00000000
vt 1.00000000 0.47253420
vt 1.00000000 1.00000000
vt 0.20331571 1.00000000
vt 0.20331571 0.73186597
vt 0.58728397 1.00000000
vt 0.00000000 1.00000000
vt 0.46141946 0.04561511
vt 0.46141946 0.00000000
vt 1.00000000 0.00000000
vt 1.00000000 0.14635168
vt 1.00000000 1.00000000
vt 0.36596212 1.00000000
vt 0.00000000 0.61294524
vt 0.00000000 0.00000000
vt 0.58145715 0.00000000
vt 0.58145715 0.55733397
vt 1.00000000 1.00000000
vt 0.11155411 1.00000000
vt 0.00000000 0.00000000
vt 0.88844589 0.00000000
vt 0.00000000 1.00000000
vt 0.00000000 0.54090367
vt 0.22227474 0.00000000
vt 1.00000000 0.00000000
vt 0.71322855 0.69785587
vt 0.71322855 1.00000000
vt 0.00000000 0.00000000
vt 0.88129595 0.00000000
vt 1.00000000 1.00000000
vt 0.11870405 1.00000000
vn -0.00000000 -1.00000000 0.00000000
vn -0.00000000 -1.00000000 0.00000000
vn -0.00000000 -1.00000000 0.00000000
vn -0.00000000 -1.00000000 0.00000000
vn 0.00000000 -1.00000000 0.00000000
vn 0.00000000 -1.00000000 0.00000000
vn 0.39872611 -0.00000000 -0.91707006
vn 0.39872611 -0.00000000 -0.91707006
vn 0.39872611 -0.00000000 -0.91707006
vn 0.39872611 -0.00000000 -0.91707006
vn -0.39872611 0.00000000 0.91707006
vn -0.39872611 0.00000000 0.91707006
vn -0.39872611 0.00000000 0.91707006
vn -0.39872611 0.00000000 0.91707006
vn 0.00000000 -0.00000000 -1.00000000
vn 0.00000000 -0.00000000 -1.00000000
vn 0.00000000 0.00000000 -1.00000000
vn 0.00000000 0.00000000 -1.00000000
vn 0.00000000 0.00000000 -1.00000000
vn 0.00000000 0.00000000 -1.00000000
vn 0.00000000 -0.00000000 -1.00000000
vn 0.00000000 -0.00000000 -1.00000000
vn -0.00000000 0.00000000 1.00000000
vn -0.00000000 0.00000000 1.00000000
vn -0.00000000 0.00000000 1.00000000
vn -0.00000000 0.00000000 1.00000000
vn -0.00000000 0.00000000 1.00000000
vn -0.00000000 0.00000000 1.00000000
vn -0.00000000 -0.00000000 1.00000000
vn -0.00000000 -0.00000000 1.00000000
vn 0.39872611 -0.00000000 0.91707006
vn 0.39872611 -0.00000000 0.91707006
vn 0.39872611 -0.00000000 0.91707006
vn 0.39872611 -0.00000000 0.91707006
vn -0.39872611 0.00000000 -0.91707006
vn -0.39872611 0.00000000 -0.91707006
vn -0.39872611 0.00000000 -0.91707006
vn -0.39872611 0.00000000 -0.91707006
vn -0.68965517 -0.72413793 0.00000000
vn -0.68965517 -0.72413793 0.00000000
vn -0.68965517 -0.72413793 0.00000000
vn -0.68965517 -0.72413793 0.00000000
vn -0.68965517 -0.72413793 0.00000000
vn -0.68965517 -0.72413793 0.00000000
vn 0.68965517 -0.72413793 0.00000000
vn 0.68965517 -0.72413793 0.00000000
vn 0.68965517 -0.72413793 0.00000000
vn 0.68965517 -0.72413793 0.00000000
vn 0.68965517 -0.72413793 0.00000000
vn 0.68965517 -0.72413793 0.00000000
vn -0.27737991 0.96076032 0.00000000
vn -0.27737991 0.96076032 0.00000000
vn -0.27737991 0.96076032 0.00000000
vn -0.27737991 0.96076032 0.00000000
vn -0.27737991 0.96076032 0.00000000
vn -0.27737991 0.96076032 0.00000000
vn 0.99615682 0.08758765 0.00000000
vn 0.99615682 0.08758765 0.00000000
vn 0.99615682 0.08758765 0.00000000
vn 0.99615682 0.08758765 0.00000000
vn -0.91959790 0.39286093 -0.00000000
vn -0.91959790 0.39286093 -0.00000000
vn -0.91959790 0.39286093 -0.00000000
vn -0.91959790 0.39286093 -0.00000000
vn -0.91959790 0.39286093 -0.00000000
vn -0.91959790 0.39286093 -0.00000000
vn -0.87220031 -0.48914887 -0.00000000
vn -0.87220031 -0.48914887 -0.00000000
vn -0.87220031 -0.48914887 -0.00000000
vn -0.87220031 -0.48914887 -0.00000000
s 1
usemtl Default
f 32/88/86 31/87/85 30/86/84 29/85/83
f 31/92/85 34/91/88 33/90/87 30/89/84
s 2
f 35/93/89 36/94/90 37/95/91
f 35/93/89 37/95/91 38/96/92
s 3
f 42/100/96 39/97/93 40/98/94
f 40/98/94 41/99/95 42/100/96
s 4
f 37/101/97 43/102/98 44/103/99
f 38/108/104 44/103/99 45/104/100
f 45/104/100 29/105/101 30/106/102
f 45/104/100 30/106/102 38/108/104
f 30/106/102 33/107/103 38/108/104
f 38/108/104 37/101/97 44/103/99
s 5
f 31/113/109 32/114/110 47/115/111
f 42/110/106 47/115/111 48/116/112
f 48/116/112 46/109/105 42/110/106
f 42/110/106 41/111/107 47/115/111
f 41/111/107 31/113/109 47/115/111
f 41/111/107 34/112/108 31/113/109
s 6
f 50/120/116 49/117/113 48/118/114
f 48/118/114 47/119/115 50/120/116
s 7
f 44/121/117 51/122/118 52/123/119
f 44/121/117 52/123/119 45/124/120
s 8
f 38/130/126 33/129/125 34/128/124
f 38/130/126 40/126/122 35/125/121
f 38/130/126 41/127/123 40/126/122
f 38/130/126 34/128/124 41/127/123
s 9
f 47/136/132 32/135/131 29/134/130
f 29/134/130 45/133/129 50/131/127
f 45/133/129 52/132/128 50/131/127
f 50/131/127 47/136/132 29/134/130
s 10
f 49/138/134 51/137/133 44/142/138
f 44/142/138 46/140/136 48/139/135
f 44/142/138 43/141/137 46/140/136
f 48/139/135 49/138/134 44/142/138
s 11
f 51/146/142 49/145/141 50/144/140 52/143/139
s 12
f 46/147/143 43/152/148 37/151/147
f 37/151/147 36/150/146 42/148/144
f 36/150/146 39/149/145 42/148/144
f 42/148/144 46/147/143 37/151/147
s 13
f 39/156/152 36/155/151 35/154/150 40/153/149
o object4
g object4
v -1.49330968 7.39337382 -0.00000000
v 2.30000000 8.48853551 -0.00000000
v 2.30000000 11.60000000 -0.00000000
v 1.80000000 9.60000000 -0.00000000
v 0.00000000 9.60000000 -0.00000000
v -1.80000000 9.60000000 -0.00000000
v -2.40000000 12.00000000 -0.00000000
v -2.50000000 12.00000000 -0.00000000
v -2.50000000 9.60308761 -0.00000000
v 1.95584073 8.38917371 -1.65471336
v -1.49330968 7.39337382 -1.65471336
v -2.15584073 8.84764826 -1.65471336
v -2.15584073 11.02336293 -1.65471336
v -1.80000000 9.60000000 -1.65471336
v 0.00000000 9.60000000 -1.65471336
v 1.80000000 9.60000000 -1.65471336
v 1.95584073 10.22336293 -1.65471336
v 4.69535028 9.18009409 -1.04145664
v 5.21642821 3.25374115 -1.26801226
v 6.00000000 4.00000000 -1.60869565
v 6.00000000 8.00000000 -1.60869565
v 6.00000000 12.00000000 -1.60869565
v 2.40000000 12.00000000 -0.04347826
v 4.69535028 9.18009409 -2.84580447
v 2.40000000 12.00000000 -1.84782609
v 6.00000000 12.00000000 -3.41304348
v 6.00000000 8.00000000 -3.41304348
v 6.00000000 4.00000000 -3.41304348
v 5.21642821 3.25374115 -3.07236009
v -2.40000000 12.00000000 -1.76086957
v -3.59197331 12.00000000 -0.47477101
v -3.59197331 12.00000000 -2.27911883
vt 0.00000000 0.79027285
vt 0.23773618 0.00000000
vt 0.91316856 0.00000000
vt 0.47901134 0.10416667
vt 0.47901134 0.47916667
vt 0.47901134 0.85416667
vt 1.00000000 0.97916667
vt 1.00000000 1.00000000
vt 0.47968160 1.00000000
vt 0.27432586 1.00000000
vt 0.00000000 0.16113385
vt 0.40062777 0.00000000
vt 1.00000000 0.00000000
vt 0.60788782 0.08654385
vt 0.60788782 0.52432095
vt 0.60788782 0.96209805
vt 0.77961366 1.00000000
vt 0.59851811 1.00000000
vt 0.67758719 0.35260803
vt 0.00000000 0.21177616
vt 0.08532321 0.00000000
vt 0.54266160 0.00000000
vt 1.00000000 0.00000000
vt 1.00000000 0.97297297
vt 0.95426616 1.00000000
vt 0.67758719 0.67739903
vt 0.58715762 0.00000000
vt 0.79686891 0.00000000
vt 1.00000000 0.10982734
vt 1.00000000 1.00000000
vt 0.54266160 1.00000000
vt 0.08532321 1.00000000
vt 0.00000000 0.80624606
vt 0.15882444 0.00000000
vt 1.00000000 0.00000000
vt 0.84117556 1.00000000
vt 0.00000000 1.00000000
vt 0.00000000 1.00000000
vt 0.00000000 0.00000000
vt 1.00000000 0.00000000
vt 1.00000000 1.00000000
vt 0.00000000 1.00000000
vt 0.00000000 0.00000000
vt 1.00000000 0.00000000
vt 1.00000000 1.00000000
vt 0.46451613 1.00000000
vt 0.00000000 0.00000000
vt 0.53548387 0.00000000
vt 1.00000000 1.00000000
vt 0.10450806 0.74026544
vt 0.00000000 0.00000000
vt 0.97647059 0.00000000
vt 1.00000000 0.16666667
vt 1.00000000 1.00000000
vt 0.10450806 1.00000000
vt 0.00000000 1.00000000
vt 0.00000000 0.00000000
vt 1.00000000 0.00000000
vt 1.00000000 1.00000000
vt 0.00000000 1.00000000
vt 0.00000000 0.00000000
vt 1.00000000 0.00000000
vt 1.00000000 1.00000000
vt 0.00000000 1.00000000
vt 0.06028624 0.59306789
vt 0.06028624 0.00000000
vt 1.00000000 0.00000000
vt 1.00000000 1.00000000
vt 0.79168659 1.00000000
vt 0.00000000 1.00000000
vt 0.22739019 0.00000000
vt 1.00000000 0.00000000
vt 1.00000000 0.08389450
vt 1.00000000 1.00000000
vt 0.00000000 0.00000000
vt 1.00000000 0.00000000
vt 0.00000000 1.00000000
vt 1.00000000 0.00000000
vt 1.00000000 0.82998835
vt 0.69018779 1.00000000
vt 0.20831341 0.00000000
vt 1.00000000 0.00000000
vt 0.72603207 0.68430813
vt 0.72603207 1.00000000
vt 0.00000000 1.00000000
vt 0.00000000 0.52031840
vt 0.58145715 0.55733397
vt 1.00000000 1.00000000
vt 0.36596212 1.00000000
vt 0.00000000 0.61294524
vt 0.00000000 0.00000000
vt 0.58145715 0.00000000
vt 1.00000000 1.00000000
vt 0.11155411 1.00000000
vt 0.00000000 0.00000000
vt 0.88844589 0.00000000
vn -0.00000000 0.00000000 1.00000000
vn -0.00000000 0.00000000 1.00000000
vn -0.00000000 0.00000000 1.00000000
vn -0.00000000 0.00000000 1.00000000
vn -0.00000000 0.00000000 1.00000000
vn -0.00000000 0.00000000 1.00000000
vn -0.00000000 0.00000000 1.00000000
vn -0.00000000 0.00000000 1.00000000
vn -0.00000000 0.00000000 1.00000000
vn 0.00000000 -0.00000000 -1.00000000
vn 0.00000000 -0.00000000 -1.00000000
vn 0.00000000 -0.00000000 -1.00000000
vn 0.00000000 -0.00000000 -1.00000000
vn 0.00000000 -0.00000000 -1.00000000
vn 0.00000000 -0.00000000 -1.00000000
vn 0.00000000 -0.00000000 -1.00000000
vn 0.00000000 -0.00000000 -1.00000000
vn 0.39872611 0.00000000 0.91707006
vn 0.39872611 0.00000000 0.91707006
vn 0.39872611 0.00000000 0.91707006
vn 0.39872611 0.00000000 0.91707006
vn 0.39872611 0.00000000 0.91707006
vn 0.39872611 0.00000000 0.91707006
vn 0.39872611 0.00000000 0.91707006
vn 0.39872611 0.00000000 0.91707006
vn -0.39872611 0.00000000 -0.91707006
vn -0.39872611 0.00000000 -0.91707006
vn -0.39872611 0.00000000 -0.91707006
vn -0.39872611 0.00000000 -0.91707006
vn -0.39872611 0.00000000 -0.91707006
vn -0.39872611 0.00000000 -0.91707006
vn -0.39872611 0.00000000 -0.91707006
vn -0.39872611 0.00000000 -0.91707006
vn 0.68965517 -0.72413793 0.00000000
vn 0.68965517 -0.72413793 0.00000000
vn 0.68965517 -0.72413793 0.00000000
vn 0.68965517 -0.72413793 0.00000000
vn 1.00000000 -0.00000000 0.00000000
vn 1.00000000 -0.00000000 0.00000000
vn 1.00000000 -0.00000000 0.00000000
vn 1.00000000 -0.00000000 0.00000000
vn 1.00000000 -0.00000000 0.00000000
vn 1.00000000 -0.00000000 0.00000000
vn 0.00000000 1.00000000 -0.00000000
vn 0.00000000 1.00000000 -0.00000000
vn 0.00000000 1.00000000 -0.00000000
vn 0.00000000 1.00000000 -0.00000000
vn -0.97014250 0.24253563 0.00000000
vn -0.97014250 0.24253563 0.00000000
vn -0.97014250 0.24253563 0.00000000
vn -0.97014250 0.24253563 0.00000000
vn -0.97014250 0.24253563 0.00000000
vn -0.97014250 0.24253563 0.00000000
vn 0.00000000 1.00000000 -0.00000000
vn 0.00000000 1.00000000 -0.00000000
vn 0.00000000 1.00000000 -0.00000000
vn 0.00000000 1.00000000 -0.00000000
vn 0.00000000 1.00000000 -0.00000000
vn 0.00000000 1.00000000 -0.00000000
vn 0.97014250 0.24253563 -0.00000000
vn 0.97014250 0.24253563 -0.00000000
vn 0.97014250 0.24253563 -0.00000000
vn 0.97014250 0.24253563 -0.00000000
vn 0.97014250 0.24253563 -0.00000000
vn -0.00000000 1.00000000 0.00000000
vn -0.00000000 1.00000000 0.00000000
vn -0.00000000 1.00000000 0.00000000
vn -0.00000000 1.00000000 0.00000000
vn -0.00000000 1.00000000 0.00000000
vn -0.39872611 0.00000000 0.91707006
vn -0.39872611 0.00000000 0.91707006
vn -0.39872611 0.00000000 0.91707006
vn 0.39872611 -0.00000000 -0.91707006
vn 0.39872611 -0.00000000 -0.91707006
vn 0.39872611 -0.00000000 -0.91707006
vn 0.39872611 -0.00000000 -0.91707006
vn -0.91001321 -0.41457925 -0.00000000
vn -0.91001321 -0.41457925 -0.00000000
vn -0.91001321 -0.41457925 -0.00000000
vn -0.91001321 -0.41457925 0.00000000
vn -0.91001321 -0.41457925 0.00000000
vn -0.91001321 -0.41457925 -0.00000000
vn 0.27737991 -0.96076032 -0.00000000
vn 0.27737991 -0.96076032 -0.00000000
vn 0.27737991 -0.96076032 -0.00000000
vn 0.27737991 -0.96076032 -0.00000000
vn 0.27737991 -0.96076032 -0.00000000
vn 0.27737991 -0.96076032 -0.00000000
vn -0.99615682 -0.08758765 -0.00000000
vn -0.99615682 -0.08758765 -0.00000000
vn -0.99615682 -0.08758765 -0.00000000
vn -0.99615682 -0.08758765 -0.00000000
s 1
usemtl Default
f 54/158/154 55/159/155 56/160/156
f 53/157/153 54/158/154 58/162/158
f 58/162/158 59/163/159 60/164/160
f 53/157/153 58/162/158 60/164/160
f 60/164/160 61/165/161 53/157/153
f 54/158/154 57/161/157 58/162/158
f 54/158/154 56/160/156 57/161/157
s 2
f 64/168/164 65/169/165 66/170/166
f 63/167/163 66/170/166 67/171/167
f 62/166/162 63/167/163 68/172/168
f 62/166/162 68/172/168 69/173/169
f 63/167/163 67/171/167 68/172/168
f 63/167/163 64/168/164 66/170/166
s 3
f 55/181/177 54/174/170 70/175/171
f 70/175/171 73/178/174 74/179/175
f 71/176/172 72/177/173 73/178/174
f 70/175/171 71/176/172 73/178/174
f 74/179/175 75/180/176 55/181/177
f 55/181/177 70/175/171 74/179/175
s 4
f 76/182/178 62/183/179 69/184/180
f 76/182/178 79/187/183 81/189/185
f 79/187/183 80/188/184 81/189/185
f 76/182/178 78/186/182 79/187/183
f 76/182/178 77/185/181 78/186/182
f 76/182/178 69/184/180 77/185/181
s 5
f 80/193/189 72/192/188 71/191/187 81/190/186
s 6
f 73/197/193 72/196/192 80/195/191 79/194/190
f 74/201/195 73/200/193 79/199/190 78/198/194
s 7
f 75/205/199 74/204/198 78/203/197 77/202/196
s 8
f 69/206/200 68/211/205 56/210/204
f 56/210/204 55/209/203 69/206/200
f 55/209/203 75/208/202 77/207/201
f 55/209/203 77/207/201 69/206/200
s 9
f 57/215/209 56/214/208 68/213/207 67/212/206
f 58/219/211 57/218/209 67/217/206 66/216/210
s 10
f 65/221/213 82/220/212 59/224/216
f 59/224/216 58/223/215 65/221/213
f 58/223/215 66/222/214 65/221/213
s 11
f 82/227/219 84/226/218 83/225/217
f 60/229/221 59/228/220 82/227/219
f 82/227/219 83/225/217 60/229/221
s 12
f 83/230/222 61/231/223 60/232/224
s 13
f 84/234/226 82/235/227 65/236/228
f 64/233/225 84/234/226 65/236/228
s 14
f 64/239/231 63/240/232 53/241/233
f 84/238/230 64/239/231 61/242/234
f 61/242/234 83/237/229 84/238/230
f 64/239/231 53/241/233 61/242/234
s 15
f 62/243/235 76/244/236 70/245/237
f 62/243/235 54/246/238 53/247/239
f 53/247/239 63/248/240 62/243/235
f 62/243/235 70/245/237 54/246/238
s 16
f 81/249/241 71/250/242 70/251/243 76/252/244
